<?xml version="1.0" standalone="no"?><!DOCTYPE svg PUBLIC "-//W3C//DTD SVG 1.1//EN" "http://www.w3.org/Graphics/SVG/1.1/DTD/svg11.dtd"><svg t="1519870719662" class="icon" style="" viewBox="0 0 1024 1024" version="1.1" xmlns="http://www.w3.org/2000/svg" p-id="546" xmlns:xlink="http://www.w3.org/1999/xlink" width="48" height="48"><defs><style type="text/css"></style></defs><path d="M958.72 925.44c-15.36-181.76-139.52-332.16-307.84-386.56C721.28 493.44 768 414.72 768 324.48c0-141.44-115.2-256-256.64-256-141.44 0-256.64 114.56-256.64 256 0 90.24 46.72 168.96 117.12 214.4C204.16 593.28 79.36 743.68 64 925.44c0 3.2-0.64 5.76 0 10.24 1.28 16 15.36 28.8 31.36 28.8l831.36 0c16 0 30.08-12.8 31.36-28.8C959.36 931.2 958.72 928.64 958.72 925.44z" p-id="547" fill="#d4237a"></path></svg>